<?xml version="1.0" standalone="no"?><!DOCTYPE svg PUBLIC "-//W3C//DTD SVG 1.1//EN" "http://www.w3.org/Graphics/SVG/1.1/DTD/svg11.dtd"><svg t="1650954976363" class="icon" viewBox="0 0 1024 1024" version="1.1" xmlns="http://www.w3.org/2000/svg" p-id="976" data-darkreader-inline-fill="" xmlns:xlink="http://www.w3.org/1999/xlink" width="200" height="200"><defs><style type="text/css">@font-face { font-family: feedback-iconfont; src: url("//at.alicdn.com/t/font_1031158_u69w8yhxdu.woff2?t=1630033759944") format("woff2"), url("//at.alicdn.com/t/font_1031158_u69w8yhxdu.woff?t=1630033759944") format("woff"), url("//at.alicdn.com/t/font_1031158_u69w8yhxdu.ttf?t=1630033759944") format("truetype"); }
</style></defs><path d="M103.148983 912.896C-26.313874 799.012571-42.222446 204.873143 103.148983 87.771429 248.410697-29.257143 813.036983-29.257143 926.518126 87.771429c113.481143 117.065143 129.389714 628.370286 0 793.234285-129.389714 164.864-694.016 145.737143-823.442286 31.817143zM648.09984 315.099429l-136.594286 136.594285-139.264-139.264a43.885714 43.885714 0 1 0-62.061714 62.061715l139.264 139.300571-137.508571 137.508571a43.885714 43.885714 0 0 0 62.061714 62.061715l137.508571-137.508572 134.838857 134.838857a43.885714 43.885714 0 1 0 62.061715-62.098285l-134.838857-134.802286 136.630857-136.630857a43.885714 43.885714 0 0 0-62.098286-62.061714z" fill="#FF579A" p-id="977" data-darkreader-inline-fill="" style="--darkreader-inline-fill:#98003d;"></path></svg>